<svg xmlns="http://www.w3.org/2000/svg" viewBox="0 0 48 48" fill="none">
  <rect width="48" height="48" rx="10" fill="#0F9D58"/>
  <rect x="8" y="8" width="32" height="32" rx="3" fill="white"/>
  <!-- Header row -->
  <rect x="8" y="8" width="32" height="8" rx="3" fill="#0F9D58"/>
  <rect x="8" y="14" width="32" height="2" fill="#0F9D58"/>
  <!-- Column lines -->
  <line x1="18" y1="8" x2="18" y2="40" stroke="#C8E6C9" stroke-width="1"/>
  <line x1="30" y1="8" x2="30" y2="40" stroke="#C8E6C9" stroke-width="1"/>
  <!-- Row lines -->
  <line x1="8" y1="22" x2="40" y2="22" stroke="#C8E6C9" stroke-width="1"/>
  <line x1="8" y1="28" x2="40" y2="28" stroke="#C8E6C9" stroke-width="1"/>
  <line x1="8" y1="34" x2="40" y2="34" stroke="#C8E6C9" stroke-width="1"/>
  <!-- Header text placeholders -->
  <rect x="10" y="11" width="6" height="2" rx="1" fill="white"/>
  <rect x="20" y="11" width="8" height="2" rx="1" fill="white"/>
  <rect x="32" y="11" width="6" height="2" rx="1" fill="white"/>
  <!-- Cell content placeholders -->
  <rect x="10" y="18" width="5" height="1.5" rx="0.5" fill="#4CAF50" opacity="0.5"/>
  <rect x="20" y="18" width="7" height="1.5" rx="0.5" fill="#4CAF50" opacity="0.4"/>
  <rect x="32" y="18" width="4" height="1.5" rx="0.5" fill="#4CAF50" opacity="0.3"/>
  <rect x="10" y="24" width="6" height="1.5" rx="0.5" fill="#4CAF50" opacity="0.4"/>
  <rect x="20" y="24" width="5" height="1.5" rx="0.5" fill="#4CAF50" opacity="0.3"/>
  <rect x="32" y="24" width="6" height="1.5" rx="0.5" fill="#4CAF50" opacity="0.5"/>
  <rect x="10" y="30" width="4" height="1.5" rx="0.5" fill="#4CAF50" opacity="0.3"/>
  <rect x="20" y="30" width="8" height="1.5" rx="0.5" fill="#4CAF50" opacity="0.5"/>
  <rect x="32" y="30" width="5" height="1.5" rx="0.5" fill="#4CAF50" opacity="0.4"/>
  <rect x="10" y="36" width="5" height="1.5" rx="0.5" fill="#4CAF50" opacity="0.4"/>
  <rect x="20" y="36" width="6" height="1.5" rx="0.5" fill="#4CAF50" opacity="0.4"/>
  <rect x="32" y="36" width="4" height="1.5" rx="0.5" fill="#4CAF50" opacity="0.3"/>
</svg>
